<svg width="136" height="63" viewBox="0 0 136 63" fill="none" xmlns="http://www.w3.org/2000/svg">
<g clip-path="url(#clip0_0_2172)">
<g opacity="0.2">
<path opacity="0.02" d="M41.4387 57.7147C41.7387 63.5604 53.7498 67.6524 68.2741 66.9042C82.7984 66.1559 94.3114 60.7545 94.0284 54.9029C93.7454 49.0514 81.7173 44.9652 67.193 45.7135C52.6687 46.4617 41.1444 51.8632 41.4387 57.7147Z" fill="black"/>
<path opacity="0.05" d="M42.2825 57.8141C42.5994 63.5839 54.4407 67.5999 68.7273 66.7815C83.0138 65.9631 94.3344 60.6259 94.0174 54.8562C93.7004 49.0865 81.8591 45.0705 67.5726 45.883C53.286 46.6956 41.9655 52.0502 42.2825 57.8141Z" fill="black"/>
<path opacity="0.07" d="M43.1255 57.896C43.4651 63.5839 55.1309 67.5005 69.1627 66.6646C83.1946 65.8286 94.3227 60.5032 93.983 54.8153C93.6434 49.1274 81.9776 45.2108 67.9458 46.0467C53.9139 46.8827 42.7858 52.2315 43.1255 57.896Z" fill="black"/>
<path opacity="0.1" d="M43.9634 58.0246C44.3256 63.6306 55.8103 67.4479 69.6271 66.5535C83.4438 65.6591 94.3455 60.3921 93.9662 54.7861C93.587 49.18 82.1193 45.3628 68.3025 46.2571C54.4858 47.1515 43.6068 52.4185 43.9634 58.0246Z" fill="black"/>
<path opacity="0.12" d="M44.8068 58.1299C45.186 63.6541 56.5009 67.3778 70.0799 66.4425C83.6589 65.5072 94.3512 60.2752 93.972 54.751C93.5927 49.2268 82.2778 45.5031 68.7045 46.4384C55.1311 47.3737 44.4389 52.6056 44.8068 58.1299Z" fill="black"/>
<path opacity="0.15" d="M45.6506 58.2291C46.0525 63.6715 57.1919 67.2958 70.5559 66.3196C83.9198 65.3434 94.3856 60.1465 93.9837 54.7042C93.5819 49.2618 82.4424 45.6375 69.0785 46.6137C55.7146 47.5899 45.2488 52.7868 45.6506 58.2291Z" fill="black"/>
<path opacity="0.17" d="M46.4883 58.3344C46.9128 63.695 57.8767 67.2199 70.9746 66.2086C84.0725 65.1973 94.3572 60.0297 93.9327 54.6692C93.5082 49.3086 82.5442 45.7837 69.4463 46.795C56.3484 47.8063 46.0694 52.9739 46.4883 58.3344Z" fill="black"/>
<path opacity="0.2" d="M47.3315 58.4396C47.773 63.7008 58.5615 67.1439 71.4273 66.0917C84.2931 65.0395 94.3628 59.9069 93.9213 54.6282C93.4798 49.3496 82.6913 45.924 69.8255 46.9762C56.9597 48.0284 46.89 53.161 47.3315 58.4396Z" fill="black"/>
<path opacity="0.22" d="M48.1751 58.5448C48.6392 63.7416 59.2522 67.0679 71.8803 65.9806C84.5084 64.8932 94.3742 59.7899 93.9101 54.5931C93.446 49.3963 82.8329 46.07 70.2049 47.1573C57.5768 48.2446 47.7109 53.3479 48.1751 58.5448Z" fill="black"/>
<path opacity="0.24" d="M49.0124 58.6442C49.4935 63.7592 59.9367 66.9919 72.3271 65.8578C84.7174 64.7238 94.4021 59.6614 93.8927 54.5464C93.3833 49.4313 82.9684 46.1987 70.578 47.3327C58.1877 48.4668 48.5312 53.5292 49.0124 58.6442Z" fill="black"/>
<path opacity="0.27" d="M49.8558 58.7495C50.3596 63.7826 60.6103 66.9335 72.7799 65.7643C84.9495 64.5952 94.3852 59.5679 93.8815 54.5347C93.3777 49.5015 83.1269 46.3507 70.9573 47.5198C58.7877 48.689 49.3521 53.7163 49.8558 58.7495Z" fill="black"/>
<path opacity="0.29" d="M50.6992 58.8546C51.2256 63.806 61.3122 66.8399 73.2327 65.6298C85.1533 64.4198 94.3908 59.4275 93.8644 54.4762C93.338 49.5249 83.2514 46.4909 71.3309 47.701C59.4103 48.9111 50.1728 53.9033 50.6992 58.8546Z" fill="black"/>
<path opacity="0.32" d="M51.5371 58.96C52.1031 63.8294 61.9973 66.764 73.6801 65.5189C85.3629 64.2737 94.391 59.3107 93.8476 54.412C93.3042 49.5133 83.3874 46.6079 71.7046 47.8531C60.0218 49.0982 50.9937 54.0905 51.5371 58.96Z" fill="black"/>
<path opacity="0.34" d="M52.364 59.0652C52.9301 63.8528 62.6714 66.6646 74.1165 65.4019C85.5616 64.1392 94.3859 59.1879 93.8199 54.4003C93.2539 49.6126 83.5125 46.8008 72.0675 48.0635C60.6224 49.3262 51.798 54.2717 52.364 59.0652Z" fill="black"/>
<path opacity="0.37" d="M53.2236 59.1645C53.7897 63.8703 63.3725 66.612 74.5855 65.285C85.7985 63.958 94.3965 59.0652 93.8305 54.3594C93.2644 49.6536 83.6816 46.9119 72.4686 48.2389C61.2556 49.5659 52.635 54.4587 53.2236 59.1645Z" fill="black"/>
<path opacity="0.39" d="M54.0616 59.2697C54.6672 63.8937 64.0576 66.5359 75.0329 65.168C86.0082 63.8001 94.4137 58.9423 93.8024 54.3184C93.1911 49.6944 83.8063 47.0522 72.8311 48.4201C61.8558 49.788 53.4559 54.6457 54.0616 59.2697Z" fill="black"/>
<path opacity="0.41" d="M54.9049 59.375C55.5332 63.9171 64.7482 66.46 75.4857 65.057C86.2232 63.654 94.4193 58.8313 93.791 54.2834C93.1627 49.7354 83.9478 47.1983 73.2103 48.6013C62.4727 50.0043 54.2766 54.8328 54.9049 59.375Z" fill="black"/>
<path opacity="0.44" d="M55.7597 59.4744C56.4106 63.9346 65.4501 66.3781 75.9499 64.9343C86.4497 63.4904 94.442 58.7027 93.7911 54.2424C93.1402 49.7821 84.1007 47.3386 73.6009 48.7825C63.1011 50.2264 55.0974 55.0141 55.7597 59.4744Z" fill="black"/>
<path opacity="0.46" d="M56.5859 59.5795C57.2538 63.958 66.1178 66.3021 76.3969 64.8407C86.6759 63.3792 94.4418 58.6033 93.7739 54.2248C93.106 49.8464 84.242 47.5022 73.9629 48.9637C63.6839 50.4251 55.918 55.2011 56.5859 59.5795Z" fill="black"/>
<path opacity="0.49" d="M57.4577 59.6848C58.1482 63.9814 66.8368 66.232 76.8668 64.7062C86.8968 63.1805 94.4646 58.463 93.7797 54.1839C93.0948 49.9049 84.4006 47.6367 74.3706 49.1625C64.3406 50.6882 56.7388 55.3882 57.4577 59.6848Z" fill="black"/>
<path opacity="0.51" d="M58.2728 59.79C58.986 64.0047 67.499 66.156 77.2913 64.5893C87.0836 63.0227 94.4476 58.3402 93.7344 54.1255C93.0212 49.9107 84.5081 47.7595 74.7159 49.3261C64.9236 50.8928 57.5596 55.5577 58.2728 59.79Z" fill="black"/>
<path opacity="0.54" d="M59.1105 59.8894C59.8407 64.0223 68.167 66.0741 77.7385 64.4724C87.31 62.8707 94.4476 58.2175 93.7175 54.0846C92.9873 49.9517 84.661 47.8998 75.0895 49.5015C65.518 51.1033 58.3803 55.7565 59.1105 59.8894Z" fill="black"/>
<path opacity="0.56" d="M59.9543 59.9946C60.7071 64.0457 68.8692 65.9981 78.1917 64.3555C87.5142 62.7128 94.4593 58.0947 93.7065 54.0436C92.9537 49.9926 84.7916 48.0401 75.4691 49.6827C66.1466 51.3254 59.2015 55.9435 59.9543 59.9946Z" fill="black"/>
<path opacity="0.59" d="M60.7971 60.0998C61.5669 64.069 69.5592 65.9455 78.6439 64.2444C87.7287 62.5433 94.4927 57.9836 93.6946 54.0085C92.8965 50.0335 84.9325 48.1628 75.8477 49.8639C66.763 51.565 60.0216 56.1422 60.7971 60.0998Z" fill="black"/>
<path opacity="0.61" d="M61.6351 60.2051C62.4275 64.0925 70.2444 65.852 79.0914 64.1276C87.9384 62.4031 94.4704 57.8609 93.6723 53.9735C92.8742 50.0861 85.063 48.3266 76.216 50.051C67.369 51.7755 60.854 56.3177 61.6351 60.2051Z" fill="black"/>
<path opacity="0.63" d="M62.4783 60.3044C63.2934 64.1099 70.9291 65.7701 79.544 64.0106C88.159 62.251 94.4758 57.7381 93.6834 53.9325C92.891 50.127 85.2326 48.4668 76.6177 50.2264C68.0027 51.9859 61.6632 56.4988 62.4783 60.3044Z" fill="black"/>
<path opacity="0.66" d="M63.3218 60.4096C64.1539 64.1334 71.6198 65.6708 79.997 63.9171C88.3742 62.1634 94.4817 57.6388 93.6496 53.9151C92.8175 50.1913 85.3516 48.6539 76.9744 50.4076C68.5972 52.1613 62.4841 56.6859 63.3218 60.4096Z" fill="black"/>
<path opacity="0.68" d="M64.1597 60.5149C65.0144 64.1567 72.3048 65.6182 80.4443 63.7826C88.5838 61.9471 94.4874 57.4985 93.6327 53.8449C92.778 50.1913 85.4876 48.7416 77.3481 50.5771C69.2086 52.4127 63.305 56.873 64.1597 60.5149Z" fill="black"/>
<path opacity="0.71" d="M65.0029 60.62C65.8803 64.1801 72.9952 65.548 80.897 63.6656C88.7987 61.7833 94.4817 57.3756 93.6213 53.8156C92.7609 50.2555 85.629 48.8877 77.7272 50.77C69.8255 52.6523 64.1256 57.06 65.0029 60.62Z" fill="black"/>
<path opacity="0.73" d="M65.8464 60.7194C66.7407 64.2268 73.6802 65.4661 81.3499 63.5488C89.0196 61.6314 94.5044 57.2529 93.6044 53.7747C92.7044 50.2965 85.7705 49.028 78.1009 50.9454C70.4312 52.8628 64.9521 57.2412 65.8464 60.7194Z" fill="black"/>
<path opacity="0.76" d="M66.684 60.8188C67.601 64.2152 74.365 65.3843 81.797 63.426C89.2289 61.4677 94.5043 57.1302 93.5873 53.728C92.6703 50.3258 85.9063 49.1625 78.4744 51.1208C71.0424 53.0791 65.7727 57.4283 66.684 60.8188Z" fill="black"/>
<path opacity="0.78" d="M67.5274 60.9299C68.467 64.2444 75.0555 65.3142 82.2441 63.3208C89.4326 61.3274 94.5043 57.0191 93.5647 53.7046C92.625 50.3901 86.0365 49.3203 78.8479 51.3137C71.6594 53.3071 66.5934 57.6154 67.5274 60.9299Z" fill="black"/>
<path opacity="0.8" d="M68.3708 61.0351C69.3274 64.2678 75.7291 65.2382 82.6969 63.2039C89.6647 61.1696 94.5156 56.8964 93.559 53.6637C92.6024 50.431 86.2007 49.4606 79.2329 51.4949C72.2651 53.5292 67.4142 57.8024 68.3708 61.0351Z" fill="black"/>
<path opacity="0.83" d="M69.208 61.1404C70.1873 64.2912 76.4249 65.1681 83.1436 63.0929C89.8624 61.0176 94.5151 56.7795 93.5359 53.6286C92.5567 50.4778 86.319 49.6009 79.6003 51.6762C72.8816 53.7514 68.2118 57.9837 69.208 61.1404Z" fill="black"/>
<path opacity="0.85" d="M70.0519 61.2397C71.0481 64.3087 77.1159 65.0862 83.5969 62.9934C90.0779 60.9007 94.5269 56.6742 93.525 53.6052C92.5232 50.5362 86.461 49.7587 79.98 51.8515C73.499 53.9443 69.0557 58.1707 70.0519 61.2397Z" fill="black"/>
<path opacity="0.88" d="M70.8953 61.3449C71.9141 64.3321 77.8065 65.0102 84.0497 62.8532C90.293 60.6961 94.5326 56.5281 93.5137 53.5409C92.4949 50.5537 86.6025 49.8757 80.3593 52.0327C74.116 54.1898 69.8764 58.3578 70.8953 61.3449Z" fill="black"/>
<path opacity="0.9" d="M71.7327 61.4502C72.7742 64.373 78.4854 64.9576 84.4966 62.7421C90.5078 60.5266 94.5379 56.417 93.4965 53.5058C92.455 50.5947 86.7381 49.9984 80.7325 52.2139C74.727 54.4295 70.6969 58.5448 71.7327 61.4502Z" fill="black"/>
<path opacity="0.93" d="M72.5764 61.5554C73.6349 64.3789 79.1763 64.8582 84.9498 62.6251C90.7232 60.3921 94.5439 56.2942 93.4854 53.4649C92.427 50.6356 86.8856 50.1621 81.1121 52.3951C75.3386 54.6282 71.5179 58.7261 72.5764 61.5554Z" fill="black"/>
<path opacity="0.95" d="M73.4193 61.6548C74.5004 64.3964 79.8664 64.7823 85.4021 62.5083C90.9379 60.2343 94.5491 56.1715 93.468 53.4299C92.3869 50.6882 87.021 50.3024 81.4852 52.5764C75.9494 54.8504 72.3382 58.9131 73.4193 61.6548Z" fill="black"/>
<path opacity="0.98" d="M74.263 61.76C75.3668 64.4198 80.5573 64.6829 85.8553 62.3914C91.1533 60.0999 94.5608 56.0488 93.457 53.389C92.3533 50.7292 87.1628 50.4661 81.8648 52.7576C76.5668 55.0491 73.1593 59.1002 74.263 61.76Z" fill="black"/>
<path d="M86.2957 62.2931C91.3598 59.9427 94.555 55.9461 93.4324 53.3665C92.3099 50.7868 87.2946 50.601 82.2306 52.9515C77.1666 55.3019 73.9714 59.2985 75.094 61.8781C76.2165 64.4577 81.2317 64.6435 86.2957 62.2931Z" fill="black"/>
</g>
<g opacity="0.3">
<path opacity="0.02" d="M73.7422 66.07C107.641 57.8908 132.623 40.212 129.54 26.5835C126.457 12.9549 96.4769 8.53738 62.5777 16.7166C28.6784 24.8959 3.69696 42.5746 6.77996 56.2032C9.86296 69.8318 39.843 74.2493 73.7422 66.07Z" fill="black"/>
<path opacity="0.04" d="M73.6836 65.8139C107.233 57.7191 131.956 40.2235 128.905 26.7365C125.854 13.2494 96.1841 8.87805 62.6349 16.9728C29.0858 25.0676 4.36212 42.5632 7.41311 56.0503C10.4641 69.5374 40.1344 73.9087 73.6836 65.8139Z" fill="black"/>
<path opacity="0.06" d="M73.6256 65.5577C106.822 57.5481 131.285 40.2363 128.266 26.8907C125.247 13.545 95.8889 9.21933 62.6929 17.2289C29.4968 25.2385 5.0335 42.5503 8.05249 55.8959C11.0715 69.2416 40.4296 73.5673 73.6256 65.5577Z" fill="black"/>
<path opacity="0.08" d="M73.5676 65.3015C106.411 57.3772 130.614 40.2491 127.627 27.045C124.64 13.8408 95.5937 9.56073 62.7508 17.4851C29.9078 25.4095 5.70482 42.5376 8.69181 55.7417C11.6788 68.9459 40.7247 73.2259 73.5676 65.3015Z" fill="black"/>
<path opacity="0.1" d="M73.5098 65.0454C106.003 57.2055 129.948 40.2606 126.993 27.1979C124.038 14.1353 95.3017 9.90141 62.8089 17.7413C30.316 25.5813 6.37083 42.5262 9.32582 55.5888C12.2808 68.6515 41.0169 72.8854 73.5098 65.0454Z" fill="black"/>
<path opacity="0.12" d="M73.4518 64.7892C105.592 57.0345 129.276 40.2733 126.353 27.3521C123.43 14.4309 95.0065 10.2427 62.8668 17.9974C30.727 25.7521 7.04215 42.5133 9.96513 55.4345C12.8881 68.3557 41.3121 72.5439 73.4518 64.7892Z" fill="black"/>
<path opacity="0.14" d="M73.3944 64.5331C105.184 56.8628 128.611 40.2849 125.72 27.5051C122.829 14.7254 94.7149 10.5834 62.9252 18.2536C31.1355 25.9239 7.70853 42.5019 10.5995 55.2816C13.4905 68.0613 41.6047 72.2034 73.3944 64.5331Z" fill="black"/>
<path opacity="0.16" d="M73.336 64.2768C104.773 56.6918 127.939 40.2976 125.08 27.6593C122.221 15.0211 94.4193 10.9246 62.9827 18.5097C31.5462 26.0947 8.37949 42.489 11.2385 55.1272C14.0974 67.7655 41.8994 71.8619 73.336 64.2768Z" fill="black"/>
<path opacity="0.18" d="M73.2781 64.0207C104.365 56.5202 127.273 40.3091 124.446 27.8123C121.619 15.3155 94.1272 11.2653 63.0407 18.7659C31.9543 26.2665 9.04544 42.4776 11.8724 54.9743C14.6994 67.4711 42.1917 71.5213 73.2781 64.0207Z" fill="black"/>
<path opacity="0.2" d="M73.2202 63.7646C103.954 56.3492 126.602 40.3219 123.807 27.9666C121.012 15.6113 93.8321 11.6067 63.0987 19.0221C32.3654 26.4375 9.71682 42.4648 12.5118 54.8201C15.3068 67.1754 42.4868 71.18 73.2202 63.7646Z" fill="black"/>
<path opacity="0.22" d="M73.1622 63.5084C103.542 56.1782 125.931 40.3346 123.168 28.1208C120.405 15.907 93.5369 11.948 63.1567 19.2782C32.7764 26.6084 10.3882 42.4519 13.1512 54.6658C15.9141 66.8796 42.782 70.8386 73.1622 63.5084Z" fill="black"/>
<path opacity="0.24" d="M73.1044 63.2523C103.135 56.0065 125.265 40.3461 122.534 28.2738C119.803 16.2014 93.2449 12.2887 63.2147 19.5344C33.1845 26.7801 11.0542 42.4405 13.7851 54.5129C16.5161 66.5852 43.0742 70.498 73.1044 63.2523Z" fill="black"/>
<path opacity="0.25" d="M73.0464 62.9961C102.723 55.8356 124.594 40.359 121.895 28.4281C119.196 16.4972 92.9497 12.6301 63.2726 19.7906C33.5956 26.9511 11.7255 42.4278 14.4245 54.3586C17.1235 66.2895 43.3694 70.1567 73.0464 62.9961Z" fill="black"/>
<path opacity="0.27" d="M72.9886 62.7399C102.316 55.6639 123.928 40.3704 121.261 28.581C118.594 16.7916 92.6576 12.9706 63.3307 20.0467C34.0037 27.1227 12.3915 42.4162 15.0584 54.2056C17.7254 65.995 43.6616 69.816 72.9886 62.7399Z" fill="black"/>
<path opacity="0.29" d="M72.9306 62.4838C101.904 55.4929 123.256 40.3832 120.621 28.7353C117.986 17.0873 92.3624 13.312 63.3886 20.3029C34.4147 27.2937 13.0628 42.4035 15.6978 54.0514C18.3327 65.6993 43.9567 69.4747 72.9306 62.4838Z" fill="black"/>
<path opacity="0.31" d="M72.8726 62.2275C101.493 55.3219 122.585 40.3959 119.982 28.8895C117.379 17.383 92.0673 13.6533 63.4465 20.5589C34.8258 27.4646 13.7342 42.3906 16.3371 53.897C18.9401 65.4035 44.2519 69.1332 72.8726 62.2275Z" fill="black"/>
<path opacity="0.33" d="M72.8148 61.9714C101.085 55.1503 121.919 40.4074 119.348 29.0424C116.777 17.6775 91.7752 13.994 63.5046 20.8152C35.2339 27.6363 14.4001 42.3792 16.9711 53.7442C19.542 65.1092 44.5441 68.7926 72.8148 61.9714Z" fill="black"/>
<path opacity="0.35" d="M72.7564 61.7153C100.674 54.9793 121.247 40.4203 118.708 29.1968C116.169 17.9732 91.4796 14.3354 63.5621 21.0714C35.6445 27.8073 15.0711 42.3664 17.61 53.5899C20.149 64.8135 44.8388 68.4513 72.7564 61.7153Z" fill="black"/>
<path opacity="0.37" d="M72.699 61.4591C100.266 54.8076 120.582 40.4317 118.075 29.3496C115.568 18.2676 91.188 14.6759 63.6205 21.3274C36.0531 27.979 15.7375 42.3549 18.2444 53.4369C20.7514 64.519 45.1315 68.1106 72.699 61.4591Z" fill="black"/>
<path opacity="0.39" d="M72.641 61.2088C99.8554 54.6425 119.911 40.4504 117.436 29.5098C114.961 18.5692 90.8929 15.0232 63.6785 21.5895C36.4641 28.1558 16.4089 42.348 18.8838 53.2885C21.3587 64.2291 45.4267 67.7751 72.641 61.2088Z" fill="black"/>
<path opacity="0.41" d="M72.5826 60.9468C99.4439 54.4657 119.239 40.4573 116.796 29.6582C114.353 18.8591 90.5973 15.3587 63.736 21.8398C36.8748 28.321 17.0798 42.3294 19.5227 53.1285C21.9657 63.9276 45.7214 67.428 72.5826 60.9468Z" fill="black"/>
<path opacity="0.43" d="M72.5252 60.6906C99.0364 54.294 118.573 40.4687 116.163 29.8111C113.752 19.1535 90.3056 15.6993 63.7945 22.0959C37.2833 28.4926 17.7462 42.3178 20.1571 52.9755C22.568 63.6331 46.014 67.0873 72.5252 60.6906Z" fill="black"/>
<path opacity="0.45" d="M72.4672 60.4345C98.6253 54.123 117.902 40.4816 115.523 29.9654C113.144 19.4493 90.0104 16.0407 63.8524 22.3521C37.6943 28.6636 18.4175 42.3051 20.7964 52.8212C23.1754 63.3374 46.3091 66.746 72.4672 60.4345Z" fill="black"/>
<path opacity="0.47" d="M72.409 60.1784C98.217 53.9514 117.236 40.4931 114.889 30.1184C112.542 19.7437 89.718 16.3814 63.91 22.6083C38.102 28.8353 19.0831 42.2937 21.43 52.6683C23.7769 63.043 46.601 66.4054 72.409 60.1784Z" fill="black"/>
<path opacity="0.49" d="M72.351 59.9221C97.8058 53.7804 116.564 40.5058 114.25 30.2726C111.935 20.0394 89.4228 16.7226 63.9679 22.8644C38.513 29.0062 19.7544 42.2808 22.0693 52.514C24.3843 62.7472 46.8961 66.0639 72.351 59.9221Z" fill="black"/>
<path opacity="0.51" d="M72.2931 59.666C97.3979 53.6087 115.899 40.5173 113.616 30.4256C111.333 20.3338 89.1308 17.0633 64.026 23.1206C38.9212 29.1779 20.4204 42.2694 22.7033 52.3611C24.9862 62.4528 47.1883 65.7233 72.2931 59.666Z" fill="black"/>
<path opacity="0.53" d="M72.2352 59.4099C96.9868 53.4378 115.227 40.5302 112.976 30.5799C110.725 20.6296 88.8356 17.4047 64.0839 23.3768C39.3322 29.3489 21.0918 42.2566 23.3427 52.2069C25.5936 62.1571 47.4835 65.382 72.2352 59.4099Z" fill="black"/>
<path opacity="0.55" d="M72.1772 59.1537C96.5758 53.2668 114.556 40.5429 112.337 30.7341C110.118 20.9253 88.5404 17.746 64.1418 23.6329C39.7433 29.5198 21.7631 42.2437 23.982 52.0525C26.2009 61.8613 47.7787 65.0406 72.1772 59.1537Z" fill="black"/>
<path opacity="0.57" d="M72.1194 58.8976C96.1679 53.0951 113.89 40.5544 111.703 30.8871C109.516 21.2198 88.2484 18.0867 64.1999 23.8891C40.1514 29.6916 22.4291 42.2323 24.616 51.8996C26.8029 61.5669 48.0709 64.7 72.1194 58.8976Z" fill="black"/>
<path opacity="0.59" d="M72.061 58.6413C95.7564 52.9241 113.218 40.5671 111.063 31.0413C108.909 21.5154 87.9528 18.4279 64.2574 24.1452C40.562 29.8624 23.1 42.2194 25.2549 51.7453C27.4098 61.2711 48.3656 64.3586 72.061 58.6413Z" fill="black"/>
<path opacity="0.61" d="M72.0035 58.3852C95.3488 52.7524 112.553 40.5786 110.43 31.1942C108.307 21.8099 87.6612 18.7686 64.3159 24.4014C40.9706 30.0342 23.7664 42.208 25.8893 51.5924C28.0122 60.9767 48.6583 64.018 72.0035 58.3852Z" fill="black"/>
<path opacity="0.63" d="M71.9456 58.1291C94.9378 52.5815 111.882 40.5915 109.791 31.3486C107.7 22.1057 87.366 19.11 64.3738 24.6576C41.3816 30.2052 24.4378 42.1952 26.5287 51.4381C28.6196 60.681 48.9534 63.6767 71.9456 58.1291Z" fill="black"/>
<path opacity="0.65" d="M71.8876 57.8729C94.5267 52.4105 111.21 40.6042 109.151 31.5027C107.092 22.4013 87.0708 19.4513 64.4317 24.9137C41.7926 30.3761 25.1091 42.1824 27.168 51.2838C29.2269 60.3852 49.2485 63.3352 71.8876 57.8729Z" fill="black"/>
<path opacity="0.67" d="M71.8294 57.6168C94.1183 52.2388 110.544 40.6157 108.517 31.6557C106.49 22.6958 86.7783 19.792 64.4893 25.1699C42.2004 30.5478 25.7747 42.171 27.8016 51.1309C29.8285 60.0909 49.5404 62.9947 71.8294 57.6168Z" fill="black"/>
<path opacity="0.69" d="M71.7718 57.3606C93.7077 52.0679 109.873 40.6285 107.878 31.81C105.883 22.9916 86.4836 20.1334 64.5477 25.4261C42.6118 30.7188 26.4465 42.1582 28.4413 50.9767C30.4362 59.7952 49.8359 62.6533 71.7718 57.3606Z" fill="black"/>
<path opacity="0.71" d="M71.7139 57.1044C93.2997 51.8961 109.207 40.6399 107.244 31.9629C105.282 23.2859 86.1915 20.4739 64.6057 25.6822C43.0199 30.8904 27.1124 42.1467 29.0753 50.8237C31.0382 59.5007 50.1281 62.3126 71.7139 57.1044Z" fill="black"/>
<path opacity="0.73" d="M71.6556 56.8483C92.8882 51.7252 108.535 40.6528 106.605 32.1172C104.674 23.5817 85.8959 20.8153 64.6633 25.9384C43.4306 31.0614 27.7834 42.1339 29.7142 50.6694C31.6451 59.205 50.4229 61.9713 71.6556 56.8483Z" fill="black"/>
<path opacity="0.75" d="M71.5976 56.5979C92.4772 51.56 107.864 40.6713 105.965 32.2773C104.066 23.8832 85.6008 21.1625 64.7212 26.2003C43.8416 31.2382 28.4547 42.1269 30.3536 50.5209C32.2525 58.915 50.7181 61.6357 71.5976 56.5979Z" fill="black"/>
<path opacity="0.76" d="M71.5398 56.3359C92.0693 51.3825 107.198 40.677 105.331 32.4244C103.465 24.1718 85.3087 21.4973 64.7792 26.4507C44.2497 31.404 29.1207 42.1096 30.9876 50.3622C32.8544 58.6148 51.0103 61.2893 71.5398 56.3359Z" fill="black"/>
<path opacity="0.78" d="M71.4818 56.0798C91.6582 51.2116 106.527 40.6898 104.692 32.5787C102.857 24.4676 85.0135 21.8387 64.8372 26.7069C44.6608 31.575 29.792 42.0968 31.6269 50.208C33.4618 58.3191 51.3054 60.948 71.4818 56.0798Z" fill="black"/>
<path opacity="0.8" d="M71.424 55.8294C91.2503 51.0457 105.861 40.7071 104.058 32.7374C102.255 24.7678 84.7215 22.1851 64.8952 26.9688C45.0689 31.7525 30.458 42.0912 32.2609 50.0608C34.0638 58.0305 51.5976 60.6131 71.424 55.8294Z" fill="black"/>
<path opacity="0.82" d="M71.366 55.5675C90.8392 50.8689 105.19 40.7141 103.419 32.8859C101.648 25.0577 84.4263 22.5206 64.9531 27.2191C45.48 31.9177 31.1294 42.0726 32.9002 49.9007C34.6711 57.7289 51.8928 60.266 71.366 55.5675Z" fill="black"/>
<path opacity="0.84" d="M71.3076 55.3113C90.4277 50.698 104.518 40.7269 102.779 33.0402C101.04 25.3535 84.1307 22.862 65.0107 27.4753C45.8906 32.0887 31.8003 42.0598 33.5392 49.7465C35.278 57.4332 52.1875 59.9246 71.3076 55.3113Z" fill="black"/>
<path opacity="0.86" d="M71.2502 55.0551C90.0202 50.5262 103.853 40.7383 102.146 33.1931C100.439 25.6478 83.8391 23.2026 65.0691 27.7314C46.2991 32.2603 32.4667 42.0483 34.1736 49.5935C35.8804 57.1387 52.4802 59.584 71.2502 55.0551Z" fill="black"/>
<path opacity="0.88" d="M71.1926 54.8048C89.6095 50.3612 103.182 40.757 101.507 33.3532C99.8319 25.9495 83.5443 23.5498 65.1275 27.9935C46.7106 32.4371 33.1385 42.0414 34.8133 49.4451C36.4882 56.8489 52.7758 59.2485 71.1926 54.8048Z" fill="black"/>
<path opacity="0.9" d="M71.1343 54.5429C89.2011 50.1837 102.515 40.7626 100.873 33.5004C99.2297 26.2381 83.2519 23.8847 65.1851 28.2438C47.1183 32.603 33.804 42.0241 35.4469 49.2864C37.0897 56.5486 53.0675 58.902 71.1343 54.5429Z" fill="black"/>
<path opacity="0.92" d="M71.0764 54.2866C88.7901 50.0127 101.844 40.7754 100.233 33.6545C98.6223 26.5337 82.9567 24.2259 65.243 28.4999C47.5293 32.7739 34.4754 42.0112 36.0862 49.132C37.6971 56.2528 53.3627 58.5606 71.0764 54.2866Z" fill="black"/>
<path opacity="0.94" d="M71.0185 54.0364C88.3821 49.8469 101.178 40.7927 99.5994 33.8134C98.0206 26.8341 82.6647 24.5725 65.3011 28.762C47.9374 32.9515 35.1414 42.0057 36.7202 48.985C38.299 55.9643 53.6549 58.2259 71.0185 54.0364Z" fill="black"/>
<path opacity="0.96" d="M70.9602 53.7803C87.9707 49.6759 100.506 40.8055 98.9596 33.9677C97.4128 27.1298 82.3691 24.9139 65.3586 29.0182C48.3481 33.1225 35.8123 41.9929 37.3591 48.8307C38.906 55.6686 53.9497 57.8846 70.9602 53.7803Z" fill="black"/>
<path opacity="0.98" d="M70.9022 53.5182C87.5596 49.499 99.835 40.8124 98.3202 34.116C96.8054 27.4196 82.0739 25.2493 65.4165 29.2684C48.7591 33.2875 36.4837 41.9742 37.9985 48.6705C39.5133 55.3669 54.2448 57.5373 70.9022 53.5182Z" fill="black"/>
<path d="M70.8444 53.262C87.1517 49.3274 99.1693 40.8239 97.6865 34.269C96.2036 27.7141 81.7819 25.59 65.4746 29.5246C49.1673 33.4593 37.1496 41.9627 38.6325 48.5177C40.1153 55.0726 54.537 57.1967 70.8444 53.262Z" fill="black"/>
</g>
<path d="M67.5387 22.4066C67.5387 17.0169 78.5932 12.6501 92.2289 12.6501C105.864 12.6501 116.919 17.0169 116.919 22.4066V27.621C116.919 33.0108 105.864 37.3775 92.2289 37.3775C78.5932 37.3775 67.5387 33.0108 67.5387 27.621V22.4066Z" fill="url(#paint0_linear_0_2172)"/>
<path d="M92.2289 37.7107C106.232 37.7107 117.202 33.2797 117.202 27.6269V22.4066C117.202 16.7538 106.232 12.3228 92.2289 12.3228C78.2254 12.3228 67.2557 16.7538 67.2557 22.4066V27.6269C67.2557 33.2797 78.2254 37.7107 92.2289 37.7107ZM92.2289 12.9775C105.689 12.9775 116.636 17.2098 116.636 22.4125V27.6327C116.636 32.8354 105.689 37.0677 92.2289 37.0677C78.7687 37.0677 67.8218 32.8354 67.8218 27.6327V22.4125C67.8218 17.2098 78.7687 12.9775 92.2289 12.9775Z" fill="#AB6004"/>
<path d="M92.2289 32.169C105.865 32.169 116.919 27.8009 116.919 22.4125C116.919 17.0241 105.865 12.656 92.2289 12.656C78.5929 12.656 67.5387 17.0241 67.5387 22.4125C67.5387 27.8009 78.5929 32.169 92.2289 32.169Z" fill="url(#paint1_linear_0_2172)"/>
<path d="M92.2289 32.4964C106.232 32.4964 117.202 28.0653 117.202 22.4125C117.202 16.7597 106.232 12.2994 92.2289 12.2994C78.2254 12.2994 67.2557 16.7305 67.2557 22.3833C67.2557 28.0361 78.2254 32.4964 92.2289 32.4964ZM92.2289 12.9775C105.689 12.9775 116.636 17.2098 116.636 22.4125C116.636 27.6152 105.689 31.8475 92.2289 31.8475C78.7687 31.8475 67.8218 27.6152 67.8218 22.4125C67.8218 17.2098 78.7687 12.9775 92.2289 12.9775Z" fill="#FFED8B"/>
<path d="M67.6464 21.4538C68.8633 16.5142 79.3971 12.6501 92.2176 12.6501C105.038 12.6501 115.572 16.5142 116.789 21.4538H67.6464Z" fill="url(#paint2_linear_0_2172)"/>
<path d="M92.2288 13.9537C103.736 13.9537 113.07 17.6891 113.07 22.3014C113.07 24.0551 111.734 25.6627 109.459 26.978C111.157 25.8088 112.13 24.476 112.13 23.0438C112.13 18.7005 103.221 15.1755 92.2288 15.1755C81.2365 15.1755 72.3272 18.6829 72.3272 23.0438C72.3272 24.4819 73.3065 25.8205 75.0046 26.9838C72.7404 25.6452 71.3876 24.0259 71.3876 22.3073C71.3876 17.6891 80.7214 13.9537 92.2288 13.9537Z" fill="#CA7A11"/>
<path d="M112.929 22.4066C112.917 22.6029 112.892 22.7982 112.855 22.9912C112.746 23.5321 112.521 24.0412 112.198 24.4818C111.412 25.651 109.832 26.7383 107.817 27.6151C105.517 28.5742 103.116 29.2511 100.663 29.6319C95.0723 30.5352 89.3798 30.5352 83.7894 29.6319C81.3364 29.2506 78.9352 28.5738 76.6348 27.6151C74.6197 26.7383 73.0462 25.6276 72.2537 24.4818C71.9308 24.0412 71.7066 23.5321 71.5972 22.9912C71.5654 22.8471 71.5465 22.7004 71.5406 22.5527C71.5425 22.7019 71.5577 22.8507 71.5858 22.997C71.6657 23.5619 71.8668 24.1011 72.1745 24.5754C72.9386 25.7445 74.4952 27.0072 76.5216 27.9367C78.8202 28.9745 81.235 29.7128 83.7102 30.1346C89.3286 31.1397 95.0725 31.1397 100.691 30.1346C103.166 29.7122 105.581 28.9739 107.88 27.9367C109.906 27.0013 111.457 25.7679 112.227 24.5754C112.539 24.1157 112.749 23.5909 112.844 23.0379C112.872 22.8916 112.887 22.7429 112.889 22.5937L112.929 22.4066Z" fill="#FFC747"/>
<path d="M70.0009 16.2453C70.0009 10.8555 81.2818 6.48877 95.1948 6.48877C109.108 6.48877 120.389 10.8555 120.389 16.2453V21.4597C120.389 26.8494 109.108 31.2162 95.1948 31.2162C81.2818 31.2162 70.0009 26.8494 70.0009 21.4597V16.2453Z" fill="url(#paint3_linear_0_2172)"/>
<path d="M95.1892 31.5493C109.476 31.5493 120.66 27.1183 120.66 21.4655V16.2452C120.66 10.5924 109.47 6.16138 95.1892 6.16138C80.9083 6.16138 69.7179 10.5924 69.7179 16.2452V21.4655C69.7123 27.1183 80.9026 31.5493 95.1892 31.5493ZM95.1892 6.81609C108.921 6.81609 120.094 11.0484 120.094 16.2511V21.4713C120.094 26.674 108.921 30.9063 95.1892 30.9063C81.4573 30.9063 70.284 26.674 70.284 21.4713V16.2511C70.2896 11.0425 81.4573 6.81609 95.1892 6.81609Z" fill="#AB6004"/>
<path d="M95.189 26.0076C109.103 26.0076 120.383 21.6395 120.383 16.2511C120.383 10.8628 109.103 6.49463 95.189 6.49463C81.2748 6.49463 69.9951 10.8628 69.9951 16.2511C69.9951 21.6395 81.2748 26.0076 95.189 26.0076Z" fill="url(#paint4_linear_0_2172)"/>
<path d="M95.1892 26.3291C109.476 26.3291 120.66 21.8981 120.66 16.2452C120.66 10.5924 109.47 6.16138 95.1892 6.16138C80.9083 6.16138 69.7179 10.5924 69.7179 16.2452C69.7179 21.8981 80.9026 26.3291 95.1892 26.3291ZM95.1892 6.81025C108.921 6.81025 120.094 11.0426 120.094 16.2452C120.094 21.4479 108.921 25.6802 95.1892 25.6802C81.4573 25.6802 70.284 21.4479 70.284 16.2452C70.284 11.0426 81.4573 6.81609 95.1892 6.81609V6.81025Z" fill="#FFED8B"/>
<path d="M95.1888 7.79236C106.934 7.79236 116.454 11.5278 116.454 16.1401C116.454 17.8938 115.096 19.5013 112.77 20.8166C114.502 19.6475 115.498 18.3147 115.498 16.8825C115.498 12.5391 106.407 9.01412 95.1944 9.01412C83.9814 9.01412 74.891 12.5215 74.891 16.8825C74.891 18.3205 75.8872 19.6592 77.6193 20.8225C75.2929 19.4838 73.9288 17.8645 73.9288 16.1459C73.9288 11.5278 83.4494 7.79236 95.1888 7.79236Z" fill="#CA7A11"/>
<path d="M116.325 16.2452C116.313 16.4416 116.288 16.6369 116.251 16.8298C116.138 17.3726 115.907 17.8821 115.577 18.3205C114.774 19.4896 113.166 20.5769 111.111 21.4538C108.763 22.4137 106.314 23.0904 103.815 23.4705C98.111 24.3735 92.3068 24.3735 86.6024 23.4705C84.1035 23.0897 81.6554 22.413 79.3063 21.4538C77.2517 20.5769 75.6442 19.4662 74.8404 18.3205C74.5104 17.8821 74.2802 17.3726 74.1668 16.8298C74.1329 16.686 74.1121 16.5392 74.1046 16.3914C74.1063 16.5406 74.1214 16.6893 74.1498 16.8356C74.246 17.39 74.4606 17.9152 74.7781 18.3731C75.5592 19.5422 77.1441 20.8049 79.2101 21.7344C81.5666 22.7751 84.0379 23.5133 86.5685 23.9323C92.3084 24.9394 98.1717 24.9394 103.912 23.9323C106.442 23.5128 108.913 22.7746 111.27 21.7344C113.336 20.799 114.921 19.5656 115.702 18.3731C116.019 17.9152 116.234 17.39 116.33 16.8356C116.342 16.6877 116.34 16.539 116.325 16.3914V16.2452Z" fill="#FFC747"/>
<path d="M119.545 10.0837C119.545 4.6939 108.151 0.327148 94.0742 0.327148C79.9971 0.327148 68.603 4.6939 68.603 10.0837V15.298C68.603 20.6878 79.9971 25.0545 94.0742 25.0545C108.151 25.0545 119.545 20.6878 119.545 15.298V10.0837Z" fill="url(#paint5_linear_0_2172)"/>
<path d="M94.1026 25.388C79.6689 25.388 68.3653 20.9569 68.3653 15.3041V10.0839C68.3653 4.43106 79.6859 0 94.1026 0C108.519 0 119.84 4.43106 119.84 10.0839V15.3041C119.834 20.9569 108.531 25.388 94.1026 25.388ZM94.1026 0.654718C80.2292 0.654718 68.9483 4.88702 68.9483 10.0897V15.3099C68.9483 20.5126 80.2349 24.7449 94.1026 24.7449C107.97 24.7449 119.257 20.5126 119.257 15.3099V10.0897C119.257 4.88117 107.97 0.648875 94.1026 0.648875V0.654718Z" fill="#AB6004"/>
<path d="M94.1023 19.8402C108.157 19.8402 119.551 15.472 119.551 10.0836C119.551 4.69528 108.157 0.327148 94.1023 0.327148C80.0474 0.327148 68.6537 4.69528 68.6537 10.0836C68.6537 15.472 80.0474 19.8402 94.1023 19.8402Z" fill="url(#paint6_linear_0_2172)"/>
<path d="M94.1026 20.1677C79.6689 20.1677 68.3653 15.7367 68.3653 10.0839C68.3653 4.43106 79.6859 0 94.1026 0C108.519 0 119.84 4.43106 119.84 10.0839C119.84 15.7367 108.531 20.1677 94.1026 20.1677ZM94.1026 0.648875C80.2292 0.648875 68.9483 4.88118 68.9483 10.0839C68.9483 15.2866 80.2349 19.5189 94.1026 19.5189C107.97 19.5189 119.257 15.2866 119.257 10.0839C119.257 4.88118 107.97 0.648875 94.1026 0.648875Z" fill="#FFED8B"/>
<path d="M22.6808 41.3176C22.6808 35.3023 33.7354 30.427 47.371 30.427C61.0066 30.427 72.0611 35.3023 72.0611 41.3176V47.1633C72.0611 53.1785 61.0066 58.0539 47.371 58.0539C33.7354 58.0539 22.6808 53.1785 22.6808 47.1633V41.3176Z" fill="url(#paint7_linear_0_2172)"/>
<path d="M47.371 58.3929C61.3745 58.3929 72.3441 53.4474 72.3441 47.1399V41.2941C72.3441 34.9866 61.3745 30.0411 47.371 30.0411C33.3675 30.0411 22.3979 34.9866 22.3979 41.2941V47.1399C22.3979 53.4474 33.3675 58.3929 47.371 58.3929ZM47.371 30.7952C60.8311 30.7952 71.7781 35.5186 71.7781 41.3175V47.1633C71.7781 52.9681 60.8311 57.6856 47.371 57.6856C33.9109 57.6856 22.9639 52.9622 22.9639 47.1633V41.3175C22.9639 35.5127 33.9109 30.7894 47.371 30.7894V30.7952Z" fill="#AB6004"/>
<path d="M47.371 52.2082C61.007 52.2082 72.0611 47.3323 72.0611 41.3176C72.0611 35.3029 61.007 30.427 47.371 30.427C33.735 30.427 22.6808 35.3029 22.6808 41.3176C22.6808 47.3323 33.735 52.2082 47.371 52.2082Z" fill="url(#paint8_linear_0_2172)"/>
<path d="M47.371 52.5706C61.3745 52.5706 72.3441 47.6251 72.3441 41.3176C72.3441 35.0101 61.3745 30.0646 47.371 30.0646C33.3675 30.0646 22.3979 35.0101 22.3979 41.3176C22.3979 47.6251 33.3675 52.5706 47.371 52.5706ZM47.371 30.7894C60.8311 30.7894 71.7781 35.5128 71.7781 41.3117C71.7781 47.1107 60.8311 51.834 47.371 51.834C33.9109 51.834 22.9639 47.1107 22.9639 41.3117C22.9639 35.5128 33.9109 30.7894 47.371 30.7894Z" fill="#FFED8B"/>
<path d="M22.7997 40.2536C24.011 34.7353 34.5504 30.4211 47.371 30.4211C60.1915 30.4211 70.7253 34.7294 71.9422 40.2478L22.7997 40.2536Z" fill="url(#paint9_linear_0_2172)"/>
<path d="M47.371 31.8826C58.8783 31.8826 68.2121 36.0506 68.2121 41.1948C68.2121 43.1356 66.8763 44.9419 64.6009 46.4559C66.299 45.164 67.2725 43.6675 67.2725 42.0658C67.2725 37.2197 58.3632 33.2972 47.371 33.2972C36.3787 33.2972 27.4581 37.1963 27.4581 42.0424C27.4581 43.6442 28.4374 45.1465 30.1354 46.4384C27.8713 44.9477 26.5185 43.1414 26.5185 41.1773C26.5298 36.0506 35.858 31.8826 47.371 31.8826Z" fill="#CA7A11"/>
<path d="M68.0709 41.3175C68.0595 41.539 68.0349 41.7596 67.9973 41.9781C67.8906 42.572 67.6671 43.137 67.3407 43.6382C66.5539 44.9185 64.9747 46.1577 62.9597 47.1457C60.6783 48.21 58.2736 48.9665 55.8051 49.3963C53.0229 49.9199 50.1992 50.1724 47.3712 50.1504C44.5414 50.1723 41.7159 49.9198 38.9318 49.3963C36.4634 48.9658 34.0588 48.2094 31.7772 47.1457C29.7621 46.1694 28.1886 44.9301 27.3961 43.6382C27.0677 43.1375 26.8423 42.5724 26.7339 41.9781C26.702 41.8163 26.6831 41.652 26.6773 41.487C26.6792 41.6536 26.6943 41.8198 26.7226 41.9839C26.8136 42.594 27.0235 43.1786 27.3395 43.7026C28.4293 45.3403 29.9327 46.6383 31.6866 47.4555C33.9639 48.6069 36.3822 49.4329 38.8752 49.9107C44.4834 51.0321 50.2478 51.0321 55.856 49.9107C58.3488 49.4323 60.7671 48.6063 63.0446 47.4555C64.7983 46.638 66.3017 45.3401 67.3917 43.7026C67.7077 43.1786 67.9176 42.594 68.0086 41.9839C68.0369 41.8198 68.052 41.6536 68.0539 41.487L68.0709 41.3175Z" fill="#FFC747"/>
<path d="M46.89 29.7489C46.9477 29.671 47.0211 29.6072 47.1052 29.5617C47.1893 29.5163 47.282 29.4904 47.3768 29.4858C48.3277 29.4098 48.3447 31.2395 47.4051 31.146C47.3055 31.1467 47.2069 31.1248 47.1164 31.0817C47.1164 31.0817 46.6806 30.7543 46.9127 30.8888C46.8226 30.8266 46.7484 30.7428 46.6964 30.6447C46.6444 30.5465 46.6161 30.4368 46.6139 30.3249C46.6116 30.2131 46.6356 30.1023 46.6837 30.002C46.7317 29.9017 46.8025 29.8149 46.89 29.7489Z" fill="white"/>
<path d="M21.7413 34.4429C21.7413 28.4277 33.0222 23.5524 46.9352 23.5524C60.8481 23.5524 72.1291 28.4277 72.1291 34.4429V40.2887C72.1291 46.3039 60.8481 51.1792 46.9352 51.1792C33.0222 51.1792 21.7413 46.2747 21.7413 40.2653V34.4429Z" fill="url(#paint10_linear_0_2172)"/>
<path d="M46.9353 51.5182C61.2219 51.5182 72.4066 46.5728 72.4066 40.2652V34.4195C72.4066 28.112 61.2162 23.1665 46.9353 23.1665C32.6545 23.1665 21.4641 28.112 21.4641 34.4195V40.2652C21.4584 46.5728 32.6488 51.5182 46.9353 51.5182ZM46.9353 23.9206C60.6672 23.9206 71.8405 28.6439 71.8405 34.4429V40.2886C71.8405 46.0934 60.6672 50.8109 46.9353 50.8109C33.2035 50.8109 22.0301 46.0876 22.0301 40.2886V34.4429C22.0301 28.6381 33.2035 23.9148 46.9353 23.9148V23.9206Z" fill="#AB6004"/>
<path d="M46.9352 45.3335C60.8494 45.3335 72.1291 40.4576 72.1291 34.4429C72.1291 28.4282 60.8494 23.5524 46.9352 23.5524C33.021 23.5524 21.7413 28.4282 21.7413 34.4429C21.7413 40.4576 33.021 45.3335 46.9352 45.3335Z" fill="url(#paint11_linear_0_2172)"/>
<path d="M46.9353 45.696C61.2219 45.696 72.4066 40.7505 72.4066 34.443C72.4066 28.1354 61.2162 23.1899 46.9353 23.1899C32.6544 23.1899 21.4641 28.1354 21.4641 34.443C21.4641 40.7505 32.6488 45.696 46.9353 45.696ZM46.9353 23.9148C60.6672 23.9148 71.8405 28.6381 71.8405 34.4371C71.8405 40.2361 60.6672 44.9594 46.9353 44.9594C33.2035 44.9594 22.0301 40.2361 22.0301 34.4371C22.0301 28.6381 33.2035 23.9148 46.9353 23.9148Z" fill="#FFED8B"/>
<path d="M21.8659 33.3732C23.1055 27.8607 33.8544 23.5524 46.9353 23.5524C60.0162 23.5524 70.7651 27.8607 72.0047 33.3732H21.8659Z" fill="url(#paint12_linear_0_2172)"/>
<path d="M46.935 25.0079C58.68 25.0079 68.2006 29.1759 68.2006 34.3202C68.2006 36.2609 66.8422 38.0673 64.5158 39.5813C66.2478 38.2894 67.244 36.7929 67.244 35.1912C67.244 30.3451 58.1536 26.4226 46.9406 26.4226C35.7276 26.4226 26.6372 30.3509 26.6372 35.1912C26.6372 36.7929 27.6334 38.2952 29.3655 39.5872C27.0391 38.0965 25.675 36.2902 25.675 34.326C25.6693 29.1759 35.1899 25.0079 46.935 25.0079Z" fill="#CA7A11"/>
<path d="M68.0535 34.443C68.0424 34.6645 68.0178 34.8852 67.98 35.1036C67.8694 35.6992 67.64 36.2646 67.3064 36.7637C66.5026 38.0439 64.8951 39.2832 62.8348 40.2712C60.5045 41.3364 58.0529 42.0926 55.5387 42.5218C52.6993 43.0454 49.8193 43.2978 46.9351 43.2759C44.049 43.2977 41.1671 43.0453 38.3258 42.5218C35.8117 42.092 33.3602 41.3358 31.0297 40.2712C28.975 39.2949 27.3675 38.0556 26.5581 36.7637C26.2258 36.2623 25.9983 35.6949 25.8901 35.0977C25.8561 34.9361 25.8353 34.7719 25.8279 34.6067C25.8295 34.7733 25.8447 34.9395 25.8732 35.1036C25.9606 35.7246 26.1727 36.3199 26.4958 36.8514C27.2769 38.1842 28.8618 39.5638 30.9278 40.6044C33.2631 41.7594 35.738 42.5851 38.2861 43.0596C44.016 44.1833 49.8994 44.1833 55.6292 43.0596C58.1773 42.5845 60.6521 41.7588 62.9876 40.6044C65.0536 39.5638 66.6385 38.1842 67.4196 36.8514C67.7409 36.3291 67.9548 35.7441 68.0479 35.1328C68.0764 34.9687 68.0916 34.8025 68.0932 34.6359L68.0535 34.443Z" fill="#FFC747"/>
<path d="M46.4428 22.8742C46.5025 22.7958 46.5779 22.7317 46.6639 22.6863C46.7499 22.6408 46.8444 22.6152 46.9409 22.6112C47.9088 22.5352 47.9258 24.3649 46.9692 24.2714C46.8678 24.272 46.7674 24.25 46.6749 24.2071C46.6749 24.2071 46.2277 23.8797 46.4711 24.0142C46.3796 23.9533 46.3039 23.8703 46.2506 23.7723C46.1972 23.6743 46.1679 23.5643 46.1651 23.4519C46.1623 23.3396 46.1862 23.2282 46.2346 23.1275C46.283 23.0268 46.3545 22.9399 46.4428 22.8742Z" fill="white"/>
<path d="M72.4236 27.5626C72.4236 21.5473 61.0295 16.672 46.9524 16.672C32.8753 16.672 21.4811 21.5473 21.4811 27.5626V33.4083C21.4811 39.4235 32.8753 44.2989 46.9524 44.2989C61.0295 44.2989 72.4236 39.4235 72.4236 33.4083V27.5626Z" fill="url(#paint13_linear_0_2172)"/>
<path d="M46.9748 44.6379C32.5524 44.6379 21.2318 39.6982 21.2318 33.3849V27.5391C21.2318 21.2316 32.5524 16.2861 46.9691 16.2861C61.3858 16.2861 72.7403 21.255 72.7403 27.5625V33.4082C72.7403 39.6982 61.4198 44.6379 46.9748 44.6379ZM46.9748 17.0402C33.1014 17.0402 21.8205 21.7636 21.8205 27.5625V33.4082C21.8205 39.213 33.1071 43.9305 46.9748 43.9305C60.8424 43.9305 72.129 39.2072 72.129 33.4082V27.5625C72.129 21.7636 60.8538 17.0402 46.9748 17.0402Z" fill="#AB6004"/>
<path d="M46.9746 38.459C61.0295 38.459 72.4232 33.5831 72.4232 27.5684C72.4232 21.5537 61.0295 16.6779 46.9746 16.6779C32.9197 16.6779 21.526 21.5537 21.526 27.5684C21.526 33.5831 32.9197 38.459 46.9746 38.459Z" fill="url(#paint14_linear_0_2172)"/>
<path d="M46.9748 38.8156C32.5524 38.8156 21.2318 33.8759 21.2318 27.5626C21.2318 21.2492 32.5524 16.3096 46.9691 16.3096C61.3858 16.3096 72.7403 21.255 72.7403 27.5626C72.7403 33.8701 61.4198 38.8156 46.9748 38.8156ZM46.9748 17.0344C33.1014 17.0344 21.8205 21.7578 21.8205 27.5567C21.8205 33.3557 33.1071 38.079 46.9748 38.079C60.8424 38.079 72.129 33.3557 72.129 27.5567C72.129 21.7578 60.8538 17.0403 46.9748 17.0403V17.0344Z" fill="#FFED8B"/>
<path d="M72.2993 26.4987C71.0483 20.9862 60.1919 16.6779 46.9752 16.6779C33.7584 16.6779 22.9303 20.9862 21.6511 26.4987H72.2993Z" fill="url(#paint15_linear_0_2172)"/>
<path d="M46.9749 18.1451C35.0883 18.1451 25.4942 22.3131 25.4942 27.4574C25.4942 29.3981 26.8696 31.2045 29.2186 32.7185C27.4696 31.4266 26.4621 29.9301 26.4621 28.3284C26.4621 23.4823 35.6431 19.5598 46.9693 19.5598C58.2955 19.5598 67.4764 23.4881 67.4764 28.3284C67.4764 29.9301 66.4689 31.4325 64.7199 32.7244C67.0689 31.2337 68.45 29.4274 68.45 27.4632C68.4557 22.3015 58.8389 18.1451 46.9749 18.1451Z" fill="#CA7A11"/>
<path d="M25.6471 27.5625C25.6581 27.7841 25.6827 28.0047 25.7207 28.2231C25.8322 28.8194 26.0636 29.385 26.3999 29.8833C27.215 31.1635 28.8395 32.4028 30.9281 33.3907C33.2802 34.4555 35.7523 35.2116 38.2865 35.6413C41.1563 36.1652 44.0664 36.4176 46.9807 36.3954C49.8949 36.4172 52.805 36.1647 55.6749 35.6413C58.209 35.211 60.681 34.455 63.0332 33.3907C65.1105 32.4144 66.735 31.1752 67.5614 29.8833C67.8978 29.385 68.1292 28.8194 68.2407 28.2231C68.2748 28.0615 68.2957 27.8972 68.3029 27.732C68.3014 27.8987 68.2863 28.0649 68.2577 28.2289C68.1713 28.8412 67.9631 29.4283 67.6463 29.9534C66.8539 31.2862 65.2577 32.6658 63.1691 33.7064C60.8154 34.8598 58.3239 35.6854 55.7598 36.1616C49.9709 37.2853 44.03 37.2853 38.2412 36.1616C35.6772 35.685 33.1857 34.8594 30.8319 33.7064C28.7433 32.6658 27.1414 31.2862 26.3546 29.9534C26.0306 29.4319 25.8147 28.8467 25.7207 28.2348C25.6919 28.0708 25.6767 27.9045 25.6754 27.7379L25.6471 27.5625Z" fill="#FFC747"/>
<path d="M20.5016 20.6879C20.5016 14.6727 32.009 9.79736 46.205 9.79736C60.4009 9.79736 71.9083 14.6727 71.9083 20.6879V26.5337C71.9083 32.5489 60.4009 37.4242 46.205 37.4242C32.009 37.4242 20.5016 32.5489 20.5016 26.5337V20.6879Z" fill="url(#paint16_linear_0_2172)"/>
<path d="M46.2051 37.7634C60.7803 37.7634 72.2028 32.8179 72.2028 26.5104V20.6646C72.2028 14.3571 60.786 9.41162 46.2051 9.41162C31.6242 9.41162 20.2075 14.3571 20.2075 20.6646V26.5104C20.2075 32.8179 31.6299 37.7634 46.2051 37.7634ZM46.2051 10.1657C60.2143 10.1657 71.6141 14.8891 71.6141 20.688V26.5337C71.6141 32.3385 60.2143 37.056 46.2051 37.056C32.1959 37.056 20.7961 32.3327 20.7961 26.5337V20.688C20.7961 14.8832 32.1959 10.1657 46.2051 10.1657Z" fill="#AB6004"/>
<path d="M46.205 31.5844C60.4005 31.5844 71.9083 26.7085 71.9083 20.6938C71.9083 14.6791 60.4005 9.80322 46.205 9.80322C32.0094 9.80322 20.5016 14.6791 20.5016 20.6938C20.5016 26.7085 32.0094 31.5844 46.205 31.5844Z" fill="url(#paint17_linear_0_2172)"/>
<path d="M46.2051 31.941C60.7803 31.941 72.2028 26.9955 72.2028 20.6879C72.2028 14.3804 60.786 9.43494 46.2051 9.43494C31.6242 9.43494 20.2075 14.3804 20.2075 20.6879C20.2075 26.9955 31.6299 31.941 46.2051 31.941ZM46.2051 10.1598C60.2143 10.1598 71.6141 14.8831 71.6141 20.6821C71.6141 26.481 60.2143 31.2044 46.2051 31.2044C32.1959 31.2044 20.7961 26.481 20.7961 20.6821C20.7961 14.8831 32.1959 10.1657 46.2051 10.1657V10.1598Z" fill="#FFED8B"/>
<path d="M46.2049 11.2531C58.1877 11.2531 67.9007 15.421 67.9007 20.5653C67.9007 22.5061 66.514 24.3124 64.1423 25.8264C65.9083 24.5345 66.9272 23.038 66.9272 21.4363C66.9272 16.5902 57.65 12.6677 46.2106 12.6677C34.7711 12.6677 25.4939 16.596 25.4939 21.4363C25.4939 23.038 26.5128 24.5404 28.2788 25.8323C25.9015 24.3416 24.5147 22.5353 24.5147 20.5711C24.5091 15.4269 34.2504 11.2531 46.2049 11.2531Z" fill="#CA7A11"/>
<path d="M67.7538 20.688C67.743 20.9096 67.7184 21.1302 67.6802 21.3485C67.5677 21.9456 67.3343 22.5113 66.9954 23.0087C66.1746 24.289 64.5331 25.5282 62.4332 26.5162C60.0521 27.5824 57.5518 28.3384 54.9899 28.7668C52.0915 29.2906 49.1532 29.543 46.2108 29.5209C43.2666 29.5428 40.3264 29.2904 37.4261 28.7668C34.8643 28.3379 32.3641 27.5819 29.9828 26.5162C27.8885 25.5399 26.247 24.3006 25.4206 23.0087C25.0817 22.5113 24.8483 21.9456 24.7357 21.3485C24.7016 21.187 24.6807 21.0227 24.6735 20.8575C24.6748 21.0242 24.69 21.1904 24.7187 21.3544C24.8137 21.967 25.0316 22.5524 25.3584 23.073C26.1565 24.4059 27.7753 25.7855 29.8866 26.826C32.2634 27.9692 34.7755 28.7848 37.3581 29.252C43.206 30.3755 49.2043 30.3755 55.0522 29.252C57.6398 28.7757 60.1557 27.9502 62.5351 26.7968C64.6463 25.7562 66.2595 24.3766 67.0633 23.0438C67.392 22.5237 67.6118 21.9382 67.7085 21.3252C67.7373 21.1612 67.7525 20.9949 67.7538 20.8283V20.688Z" fill="#FFC747"/>
<path d="M91.9173 57.2355C97.1643 55.4174 98.2455 44.3749 94.3285 32.549C90.4116 20.7231 83.008 12.6326 77.7383 14.4273L72.8082 16.181C67.5611 17.999 66.48 29.0416 70.3969 40.8675C74.3138 52.6933 81.7174 60.7838 86.9872 58.9892L91.9173 57.2355Z" fill="url(#paint18_linear_0_2172)"/>
<path d="M83.8739 15.7133C88.0229 18.7297 91.9851 24.9847 94.4926 32.4906C96.4001 38.2544 97.1982 44.0183 96.7567 48.7241C96.3152 53.4299 94.6115 56.5749 92.0134 57.4927L87.0833 59.2464C85.2607 59.8778 83.1211 59.3575 80.857 57.7382C76.7024 54.7043 72.7402 48.4318 70.2383 40.9435C66.2761 29.0123 67.4082 17.8061 72.7345 15.9589L77.6646 14.2051C79.4816 13.5738 81.6325 14.0941 83.8739 15.7133ZM80.9532 57.2706C83.1098 58.8255 85.1645 59.3283 86.9022 58.7262L91.8323 56.9724C94.3115 56.1131 95.9247 53.1143 96.3605 48.5312C96.7963 43.9482 96.0266 38.2486 94.1473 32.5841C91.7021 25.2126 87.8191 19.0571 83.7551 16.1284C81.5985 14.5734 79.5438 14.0707 77.8061 14.6728L72.876 16.4265C67.7252 18.2095 66.6837 29.1526 70.544 40.8149C73.0062 48.1863 76.8948 54.3419 80.9589 57.2706H80.9532Z" fill="#D68D1A"/>
<path d="M77.7446 14.4506C72.4975 16.2686 71.4164 27.3112 75.3333 39.1371C79.2502 50.963 86.6539 59.0535 91.9236 57.2588C97.1933 55.4642 98.2518 44.3982 94.3349 32.5724C90.418 20.7465 82.9917 12.6326 77.7446 14.4506Z" fill="url(#paint19_linear_0_2172)"/>
<path d="M83.8742 15.7133C88.0232 18.7297 91.9853 24.9846 94.4929 32.4905C96.4004 38.2544 97.1985 44.0183 96.757 48.7241C96.3155 53.4299 94.6117 56.5749 92.0137 57.4927C90.191 58.124 88.0515 57.6038 85.7874 55.9845C81.627 52.9856 77.6592 46.7132 75.1743 39.2073C71.2121 27.2762 72.3442 16.0699 77.6705 14.2227C79.4818 13.5738 81.6327 14.0941 83.8742 15.7133ZM85.8836 55.5578C88.0401 57.1127 90.0948 57.6154 91.8325 57.0133C94.3117 56.154 95.9249 53.1552 96.3607 48.5721C96.7966 43.9891 96.0268 38.2895 94.1476 32.625C91.7023 25.2535 87.8194 19.098 83.7553 16.1693C81.5987 14.6143 79.5441 14.1116 77.8064 14.7137C72.6555 16.4967 71.614 27.4398 75.4743 39.0962C77.9365 46.4501 81.7969 52.6057 85.8836 55.5578Z" fill="#FFED8B"/>
<path d="M85.7138 35.8401C89.5175 41.3117 93.0212 47.4731 95.1042 54.1664C97.3683 49.712 97.2381 41.3409 94.3231 32.5372C90.4062 20.723 83.0025 12.6209 77.7328 14.4155C75.231 15.2807 73.6801 18.2445 73.165 22.3891C77.7781 25.7445 82.1195 30.6608 85.7138 35.8401Z" fill="url(#paint20_linear_0_2172)"/>
<path d="M93.0608 32.9874C89.7552 23.0146 83.4383 16.1926 78.9554 17.7476C77.2573 18.3322 76.0687 20.0391 75.4177 22.4651C76.0573 20.6061 77.0875 19.3025 78.4799 18.8232C82.7082 17.3559 88.6684 23.8914 91.8495 33.4375C95.0306 42.9836 94.1136 51.869 89.9024 53.3129C88.5043 53.7981 86.9137 53.4065 85.3006 52.325C87.259 53.8507 89.2175 54.4587 90.9156 53.8741C95.3815 52.3075 96.3664 42.9602 93.0608 32.9874Z" fill="#AE4511"/>
<path d="M78.8476 17.7943L78.5079 17.9697L78.1004 18.1743C77.9476 18.2795 77.7891 18.4198 77.6023 18.5718C77.3886 18.739 77.1982 18.9357 77.0363 19.1564C76.94 19.2733 76.8382 19.3844 76.7419 19.5188L76.4702 19.9748C76.0431 20.727 75.7156 21.5351 75.4967 22.3774C75.3778 22.8684 75.2646 23.3887 75.174 23.944C75.0835 24.4994 75.0099 25.1132 74.9929 25.6977C74.9189 27.0302 74.9378 28.3665 75.0495 29.6962C75.1865 31.1686 75.4115 32.6309 75.7231 34.0746C76.3691 37.1016 77.3451 40.0432 78.6325 42.8432C79.2487 44.202 79.9463 45.5198 80.7211 46.7891C81.4233 47.9168 82.2027 48.9912 83.0531 50.0042C83.4437 50.4953 83.8569 50.8869 84.2475 51.2961C84.638 51.7053 85.0512 52.021 85.4361 52.3367C86.1111 52.8697 86.8515 53.308 87.638 53.6403L88.1247 53.8332C88.2832 53.8799 88.4304 53.9033 88.5776 53.9384C88.8354 54.0142 89.102 54.0535 89.37 54.0553C89.6077 54.0553 89.8172 54.0553 89.9983 54.0553L90.4455 53.9676L90.819 53.8916L90.4511 53.9852L90.0096 54.0962C89.8285 54.0962 89.6191 54.0962 89.3813 54.0962C89.1132 54.1089 88.8446 54.0833 88.5832 54.0202C88.4361 54.0202 88.2832 53.9735 88.1247 53.9326L87.6323 53.7572C86.8219 53.4579 86.059 53.0363 85.3682 52.5062C84.972 52.1964 84.5644 51.8573 84.1512 51.4715C83.738 51.0857 83.3192 50.6706 82.923 50.1796C82.0441 49.1706 81.2435 48.0916 80.5287 46.9528C79.7451 45.6837 79.0382 44.3659 78.4117 43.0069C77.0797 40.1704 76.0875 37.1767 75.4571 34.0922C75.1476 32.6249 74.9264 31.1392 74.7948 29.6436C74.6912 28.2954 74.6912 26.9408 74.7948 25.5925C74.7948 24.9553 74.9306 24.3766 75.0042 23.8037C75.0778 23.2308 75.2306 22.7223 75.3552 22.2254C75.5856 21.3795 75.9366 20.5737 76.3967 19.8345L76.6853 19.3902C76.7872 19.2616 76.9004 19.1505 76.9966 19.0395C77.1582 18.8184 77.3487 18.6217 77.5627 18.4549C77.7551 18.3146 77.9193 18.1801 78.0778 18.0866L78.491 17.8995L78.8476 17.7943Z" fill="#F4C738"/>
</g>
<defs>
<linearGradient id="paint0_linear_0_2172" x1="116.368" y1="25.0197" x2="66.9675" y2="25.0197" gradientUnits="userSpaceOnUse">
<stop stop-color="#CD7D0A"/>
<stop offset="0.26" stop-color="#AF5203"/>
<stop offset="0.5" stop-color="#974B00"/>
<stop offset="0.74" stop-color="#BC6D07"/>
<stop offset="1" stop-color="#D0800A"/>
</linearGradient>
<linearGradient id="paint1_linear_0_2172" x1="92.9135" y1="13.4335" x2="89.9159" y2="26.7571" gradientUnits="userSpaceOnUse">
<stop stop-color="#FFDD40"/>
<stop offset="1" stop-color="#E29A0A"/>
</linearGradient>
<linearGradient id="paint2_linear_0_2172" x1="96.1373" y1="1.06393" x2="86.6882" y2="29.0125" gradientUnits="userSpaceOnUse">
<stop offset="0.2" stop-color="#FFFF9F"/>
<stop offset="1" stop-color="#FFFA6D"/>
</linearGradient>
<linearGradient id="paint3_linear_0_2172" x1="120.551" y1="18.8525" x2="69.9794" y2="18.8525" gradientUnits="userSpaceOnUse">
<stop stop-color="#CD7D0A"/>
<stop offset="0.26" stop-color="#AF5203"/>
<stop offset="0.5" stop-color="#974B00"/>
<stop offset="0.74" stop-color="#BC6D07"/>
<stop offset="1" stop-color="#D0800A"/>
</linearGradient>
<linearGradient id="paint4_linear_0_2172" x1="96.5382" y1="7.27211" x2="93.6037" y2="20.6253" gradientUnits="userSpaceOnUse">
<stop stop-color="#FFDD40"/>
<stop offset="1" stop-color="#E29A0A"/>
</linearGradient>
<linearGradient id="paint5_linear_0_2172" x1="68.5907" y1="12.6908" x2="119.761" y2="12.6908" gradientUnits="userSpaceOnUse">
<stop stop-color="#CD7D0A"/>
<stop offset="0.26" stop-color="#AF5203"/>
<stop offset="0.5" stop-color="#974B00"/>
<stop offset="0.74" stop-color="#BC6D07"/>
<stop offset="1" stop-color="#D0800A"/>
</linearGradient>
<linearGradient id="paint6_linear_0_2172" x1="92.8877" y1="1.11047" x2="95.7914" y2="14.4778" gradientUnits="userSpaceOnUse">
<stop stop-color="#FFDD40"/>
<stop offset="1" stop-color="#E29A0A"/>
</linearGradient>
<linearGradient id="paint7_linear_0_2172" x1="71.6649" y1="44.2287" x2="22.2595" y2="44.2287" gradientUnits="userSpaceOnUse">
<stop stop-color="#CD7D0A"/>
<stop offset="0.26" stop-color="#AF5203"/>
<stop offset="0.5" stop-color="#974B00"/>
<stop offset="0.74" stop-color="#BC6D07"/>
<stop offset="1" stop-color="#D0800A"/>
</linearGradient>
<linearGradient id="paint8_linear_0_2172" x1="48.3244" y1="31.5435" x2="45.065" y2="46.0525" gradientUnits="userSpaceOnUse">
<stop stop-color="#FFDD40"/>
<stop offset="1" stop-color="#E29A0A"/>
</linearGradient>
<linearGradient id="paint9_linear_0_2172" x1="51.6717" y1="18.7882" x2="41.8618" y2="47.8032" gradientUnits="userSpaceOnUse">
<stop offset="0.2" stop-color="#FFFF9F"/>
<stop offset="1" stop-color="#FFFA6D"/>
</linearGradient>
<linearGradient id="paint10_linear_0_2172" x1="72.3012" y1="37.3541" x2="21.7244" y2="37.3541" gradientUnits="userSpaceOnUse">
<stop stop-color="#CD7D0A"/>
<stop offset="0.26" stop-color="#AF5203"/>
<stop offset="0.5" stop-color="#974B00"/>
<stop offset="0.74" stop-color="#BC6D07"/>
<stop offset="1" stop-color="#D0800A"/>
</linearGradient>
<linearGradient id="paint11_linear_0_2172" x1="48.4099" y1="24.6689" x2="45.2125" y2="39.2091" gradientUnits="userSpaceOnUse">
<stop stop-color="#FFDD40"/>
<stop offset="1" stop-color="#E29A0A"/>
</linearGradient>
<linearGradient id="paint12_linear_0_2172" x1="51.8321" y1="11.9135" x2="42.2115" y2="41.0672" gradientUnits="userSpaceOnUse">
<stop offset="0.2" stop-color="#FFFF9F"/>
<stop offset="1" stop-color="#FFFA6D"/>
</linearGradient>
<linearGradient id="paint13_linear_0_2172" x1="21.3997" y1="30.4737" x2="72.5647" y2="30.4737" gradientUnits="userSpaceOnUse">
<stop stop-color="#CD7D0A"/>
<stop offset="0.26" stop-color="#AF5203"/>
<stop offset="0.5" stop-color="#974B00"/>
<stop offset="0.74" stop-color="#BC6D07"/>
<stop offset="1" stop-color="#D0800A"/>
</linearGradient>
<linearGradient id="paint14_linear_0_2172" x1="45.5685" y1="17.7944" x2="48.7325" y2="32.3499" gradientUnits="userSpaceOnUse">
<stop stop-color="#FFDD40"/>
<stop offset="1" stop-color="#E29A0A"/>
</linearGradient>
<linearGradient id="paint15_linear_0_2172" x1="42.1072" y1="5.03318" x2="51.6388" y2="34.2584" gradientUnits="userSpaceOnUse">
<stop offset="0.2" stop-color="#FFFF9F"/>
<stop offset="1" stop-color="#FFFA6D"/>
</linearGradient>
<linearGradient id="paint16_linear_0_2172" x1="72.5877" y1="23.5991" x2="20.8347" y2="23.5991" gradientUnits="userSpaceOnUse">
<stop stop-color="#CD7D0A"/>
<stop offset="0.26" stop-color="#AF5203"/>
<stop offset="0.5" stop-color="#974B00"/>
<stop offset="0.74" stop-color="#BC6D07"/>
<stop offset="1" stop-color="#D0800A"/>
</linearGradient>
<linearGradient id="paint17_linear_0_2172" x1="48.1408" y1="10.9139" x2="45.0096" y2="25.4843" gradientUnits="userSpaceOnUse">
<stop stop-color="#FFDD40"/>
<stop offset="1" stop-color="#E29A0A"/>
</linearGradient>
<linearGradient id="paint18_linear_0_2172" x1="79.0628" y1="23.7395" x2="86.072" y2="49.5424" gradientUnits="userSpaceOnUse">
<stop stop-color="#FEE556"/>
<stop offset="0.13" stop-color="#F4B01B"/>
<stop offset="0.26" stop-color="#AF5203"/>
<stop offset="0.5" stop-color="#974B00"/>
<stop offset="0.74" stop-color="#BC6D07"/>
<stop offset="1" stop-color="#E8CD97"/>
</linearGradient>
<linearGradient id="paint19_linear_0_2172" x1="91.1467" y1="33.6352" x2="79.4618" y2="37.4758" gradientUnits="userSpaceOnUse">
<stop stop-color="#CB7B11"/>
<stop offset="1" stop-color="#E29A0A"/>
</linearGradient>
<linearGradient id="paint20_linear_0_2172" x1="107.737" y1="25.684" x2="80.0728" y2="36.1777" gradientUnits="userSpaceOnUse">
<stop offset="0.2" stop-color="#FFCF51"/>
<stop offset="1" stop-color="#FFCF00"/>
</linearGradient>
<clipPath id="clip0_0_2172">
<rect width="63" height="135" fill="white" transform="matrix(0 -1 1 0 0.5 63)"/>
</clipPath>
</defs>
</svg>
